<mxfile host="app.diagrams.net" modified="2022-05-03T06:40:21.014Z" agent="5.0 (Windows NT 10.0; Win64; x64) AppleWebKit/537.36 (KHTML, like Gecko) Chrome/100.0.4896.127 Safari/537.36" etag="dZtnM_bQhTwAsb2TBrsb" version="17.5.0" type="github">
  <diagram id="VVMgbueP8MEt9qCsnzjU" name="第 1 页">
    <mxGraphModel dx="782" dy="436" grid="1" gridSize="10" guides="1" tooltips="1" connect="1" arrows="1" fold="1" page="1" pageScale="1" pageWidth="827" pageHeight="1169" math="0" shadow="0">
      <root>
        <mxCell id="0" />
        <mxCell id="1" parent="0" />
        <mxCell id="x-ZK3mL5JkyufUBv8Pm4-2" value="" style="rounded=0;whiteSpace=wrap;html=1;fillColor=#d5e8d4;strokeColor=#82b366;" vertex="1" parent="1">
          <mxGeometry x="400" y="200" width="80" height="40" as="geometry" />
        </mxCell>
        <mxCell id="x-ZK3mL5JkyufUBv8Pm4-3" value="" style="rounded=0;whiteSpace=wrap;html=1;fillColor=#d5e8d4;strokeColor=#82b366;" vertex="1" parent="1">
          <mxGeometry x="400" y="240" width="80" height="40" as="geometry" />
        </mxCell>
        <mxCell id="x-ZK3mL5JkyufUBv8Pm4-4" value="" style="rounded=0;whiteSpace=wrap;html=1;fillColor=#d5e8d4;strokeColor=#82b366;" vertex="1" parent="1">
          <mxGeometry x="400" y="280" width="80" height="40" as="geometry" />
        </mxCell>
        <mxCell id="x-ZK3mL5JkyufUBv8Pm4-5" value="" style="rounded=0;whiteSpace=wrap;html=1;fillColor=#d5e8d4;strokeColor=#82b366;" vertex="1" parent="1">
          <mxGeometry x="400" y="320" width="80" height="40" as="geometry" />
        </mxCell>
        <mxCell id="x-ZK3mL5JkyufUBv8Pm4-6" value="" style="rounded=0;whiteSpace=wrap;html=1;fillColor=#d5e8d4;strokeColor=#82b366;" vertex="1" parent="1">
          <mxGeometry x="400" y="160" width="80" height="40" as="geometry" />
        </mxCell>
        <mxCell id="x-ZK3mL5JkyufUBv8Pm4-7" value="" style="rounded=0;whiteSpace=wrap;html=1;fillColor=#e1d5e7;strokeColor=#9673a6;" vertex="1" parent="1">
          <mxGeometry x="80" y="160" width="80" height="200" as="geometry" />
        </mxCell>
        <mxCell id="x-ZK3mL5JkyufUBv8Pm4-10" style="rounded=0;orthogonalLoop=1;jettySize=auto;html=1;entryX=0;entryY=0.5;entryDx=0;entryDy=0;exitX=1;exitY=0.5;exitDx=0;exitDy=0;" edge="1" parent="1" source="x-ZK3mL5JkyufUBv8Pm4-8" target="x-ZK3mL5JkyufUBv8Pm4-6">
          <mxGeometry relative="1" as="geometry" />
        </mxCell>
        <mxCell id="x-ZK3mL5JkyufUBv8Pm4-13" style="edgeStyle=none;rounded=0;orthogonalLoop=1;jettySize=auto;html=1;entryX=0;entryY=0.5;entryDx=0;entryDy=0;exitX=1;exitY=0.5;exitDx=0;exitDy=0;" edge="1" parent="1" source="x-ZK3mL5JkyufUBv8Pm4-8" target="x-ZK3mL5JkyufUBv8Pm4-2">
          <mxGeometry relative="1" as="geometry" />
        </mxCell>
        <mxCell id="x-ZK3mL5JkyufUBv8Pm4-14" style="edgeStyle=none;rounded=0;orthogonalLoop=1;jettySize=auto;html=1;entryX=0;entryY=0.5;entryDx=0;entryDy=0;" edge="1" parent="1" target="x-ZK3mL5JkyufUBv8Pm4-3">
          <mxGeometry relative="1" as="geometry">
            <mxPoint x="280" y="340" as="sourcePoint" />
          </mxGeometry>
        </mxCell>
        <mxCell id="x-ZK3mL5JkyufUBv8Pm4-15" style="edgeStyle=none;rounded=0;orthogonalLoop=1;jettySize=auto;html=1;entryX=0;entryY=0.5;entryDx=0;entryDy=0;exitX=1;exitY=0.5;exitDx=0;exitDy=0;" edge="1" parent="1" source="x-ZK3mL5JkyufUBv8Pm4-8" target="x-ZK3mL5JkyufUBv8Pm4-4">
          <mxGeometry relative="1" as="geometry" />
        </mxCell>
        <mxCell id="x-ZK3mL5JkyufUBv8Pm4-16" style="edgeStyle=none;rounded=0;orthogonalLoop=1;jettySize=auto;html=1;" edge="1" parent="1" source="x-ZK3mL5JkyufUBv8Pm4-8" target="x-ZK3mL5JkyufUBv8Pm4-5">
          <mxGeometry relative="1" as="geometry" />
        </mxCell>
        <mxCell id="x-ZK3mL5JkyufUBv8Pm4-8" value="" style="rounded=0;whiteSpace=wrap;html=1;fillColor=#d5e8d4;strokeColor=#82b366;" vertex="1" parent="1">
          <mxGeometry x="200" y="320" width="80" height="40" as="geometry" />
        </mxCell>
        <mxCell id="x-ZK3mL5JkyufUBv8Pm4-9" value="" style="rounded=0;whiteSpace=wrap;html=1;fillColor=#e1d5e7;strokeColor=#9673a6;" vertex="1" parent="1">
          <mxGeometry x="520" y="160" width="80" height="200" as="geometry" />
        </mxCell>
        <mxCell id="x-ZK3mL5JkyufUBv8Pm4-17" value="&lt;b&gt;&lt;font style=&quot;font-size: 16px&quot;&gt;原始数据集&lt;/font&gt;&lt;/b&gt;" style="text;html=1;strokeColor=none;fillColor=none;align=center;verticalAlign=middle;whiteSpace=wrap;rounded=0;" vertex="1" parent="1">
          <mxGeometry x="140" y="380" width="90" height="30" as="geometry" />
        </mxCell>
        <mxCell id="x-ZK3mL5JkyufUBv8Pm4-18" value="&lt;font style=&quot;font-size: 19px&quot;&gt;&lt;b&gt;过采样&lt;/b&gt;&lt;/font&gt;" style="text;html=1;strokeColor=none;fillColor=none;align=center;verticalAlign=middle;whiteSpace=wrap;rounded=0;fontSize=16;" vertex="1" parent="1">
          <mxGeometry x="270" y="90" width="130" height="40" as="geometry" />
        </mxCell>
      </root>
    </mxGraphModel>
  </diagram>
</mxfile>
